<svg xmlns="http://www.w3.org/2000/svg" width="640" height="640" viewBox="0 0 169.333 169.333"><path fill="none" stroke="#0067b9" stroke-dashoffset="9.071" stroke-linejoin="round" stroke-width="37.042" d="M-54.388 210.843a155.99 157.2 0 01-8.677-157.005A155.99 157.2 0 0167.553-32.19a155.99 157.2 0 01139.212 71.032" paint-order="markers stroke fill" transform="matrix(.4851 0 0 .48152 47.707 24.553)"/><path fill="none" stroke="#69b3e7" stroke-dashoffset="9.071" stroke-linejoin="round" stroke-width="37.042" d="M-206.765-38.842a155.99 157.2 0 01-8.677-157.005 155.99 157.2 0 01130.617-86.028 155.99 157.2 0 01139.213 71.032" paint-order="markers stroke fill" transform="matrix(-.4851 0 0 -.48152 47.707 24.553)"/><path fill="#333e48" stroke-width=".265" d="M44.213 111.608h78.093c1.44-.321 2.335-1.072 2.46-2.431V58.473z"/><path fill="#ffc107" stroke-width=".265" d="M44.213 58.236v53.372L84.67 84.915z"/></svg>
