<svg xmlns="http://www.w3.org/2000/svg" viewBox="0 0 566.9 566.9"><path fill="#75b824" d="M398.9 344.2v31c0 .7.3 1 1 1h5.8c.7 0 1-.3 1-1v-26.8c1.3-.5 3.5-.9 5.9-.9 1.8 0 3.8 0 5.5.3.7.1 1.1-.2 1.1-.8v-4.8c0-.5-.3-.9-.9-1-2.6-.4-4.8-.5-6.9-.5-4.1 0-8.3.9-11.8 2.6-.5 0-.7.4-.7.9m-30.1 10.2c0-4.4 2.6-6.9 7.5-6.9 4.8 0 7.5 2.4 7.5 6.9v9c0 4.3-2.7 6.6-7.5 6.6s-7.5-2.3-7.5-6.6v-9zm-7.9 0v9c0 8.3 6.1 13.6 15.4 13.6s15.4-5.3 15.4-13.6v-9c0-8.5-6.1-13.9-15.4-13.9s-15.4 5.4-15.4 13.9M348 369.3v5.8s0 1 1 1h5.8s1 0 1-1v-5.8s0-1-1-1H349s-1 0-1 1m-36.6 5.7c-.4.7-.1 1.2.7 1.2h7.1c.5 0 .9-.2 1.2-.7l6.7-11.4 6.7 11.4c.3.5.7.7 1.2.7h7.1c.7 0 1-.5.6-1.2L332 358.7l10.2-16.2c.4-.6.1-1.1-.7-1.1h-6.8c-.5 0-.9.3-1.2.7l-6.4 11.2-6.4-11.2c-.3-.4-.7-.7-1.2-.7h-6.8c-.7 0-1.1.5-.7 1.1l10.2 16.2-10.8 16.3zm-87.9-46v46.2c0 .7.4 1 1 1h5.9c.6 0 .9-.3.9-1V329c0-.6-.3-.9-.9-.9h-5.9c-.6-.1-1 .3-1 .9m-18.3 13.3v32.9c0 .7.4 1 1 1h5.9c.6 0 .9-.3.9-1v-32.9c0-.6-.3-.9-.9-.9h-5.9c-.6-.1-1 .2-1 .9m0-13.3v5.8s0 1 1 1h5.8s1 0 1-1V329s0-1-1-1h-5.8s-1 0-1 1m-29.5 36.7c0-2.8 2-4.4 7.1-4.4 2.1 0 4.7.3 6.5.5v7.6c-1.7.4-4.2.8-6.5.8-4.1 0-7.1-1.4-7.1-4.5m-7.9.1c0 8.4 7.2 11.2 15 11.2 5 0 10-.9 13.5-2 .5-.2.7-.6.7-1.1v-19.7c0-9.5-5.7-13.7-14-13.7-5.5 0-10 1.3-13.2 3.6-.3.3-.3.6 0 1.1l2.7 4.1c.3.5.9.6 1.3.3 2.2-1.3 5.3-2.2 8.6-2.2 5 0 6.7 2 6.7 6.8v1.3c-2-.3-4.5-.5-6.7-.5-8.5 0-14.6 3.4-14.6 10.8m-53.2-21.5v30.8c0 .7.3 1 1 1h5.8c.7 0 1-.3 1-1v-26.9c1.3-.4 3.1-.7 5.4-.7 4.4 0 6.7 2.2 6.7 7.1v20.6c0 .7.4 1 1 1h5.8c.7 0 1-.3 1-1v-20.5c0-2-.3-3.8-.9-5.5 1.8-1.1 3.7-1.7 5.9-1.7 4.8 0 6.9 2.6 6.9 7v20.6c0 .7.3 1 .9 1h5.9c.6 0 .9-.3.9-1v-20.3c0-9.4-6.1-14.3-14.5-14.3-3.9 0-6.8 1-10.2 3.1-2.5-2-5.8-3.1-9.8-3.1-4.2 0-8.5 1-12.2 2.6-.4.3-.6.7-.6 1.2m87.3-93.7l54.4-37.2v-36H127.8s-13.1 0-13.1 13.1v.4l87.2 59.7zm-74.1 54.7h128.5v-72.9l-50.9 34.7c-3.6 2.5-7.2 0-7.2 0l-83.5-57.4v82.4c-.1 0-.1 13.2 13.1 13.2m135.9 57c0 5.7-2.9 7.7-7.7 7.7-2.3 0-4.7-.3-6.3-.9v-19.9c1.7-1.1 3.9-1.8 6.5-1.8 4.8 0 7.6 2.2 7.6 7.3v7.6zm7.9-.1v-7.4c0-8.8-6.3-14.3-14.7-14.3-2.7 0-5.2.6-7.3 1.5v-12.9c0-.7-.3-1-1-1h-5.8c-.7 0-1 .3-1 1v44.4c0 .6.2.9.8 1.1 4 1.5 9.2 2.4 13.5 2.4 8.9 0 15.5-4.6 15.5-14.8m21.5-14.7c4.8 0 7.5 2.4 7.5 6.9v9c0 4.3-2.7 6.6-7.5 6.6s-7.5-2.3-7.5-6.6v-9c0-4.5 2.7-6.9 7.5-6.9m0-7c-9.3 0-15.4 5.4-15.4 13.9v9c0 8.3 6.1 13.6 15.4 13.6s15.4-5.3 15.4-13.6v-9c0-8.5-6.1-13.9-15.4-13.9m129.6-35.2h29.6v-82.2c0-35.2-18.6-45.8-46.5-45.8-14.6 0-27 3.2-36.2 6.9-4.7-2.9-12-6.9-29.4-6.9-15.4 0-39.7 5.2-47.9 11.5v116.5h29.3V205.1c6.8-1.7 11.5-2.9 19-2.9 11.8.1 16.7 5.2 17 21.7v81.4h29.2l-.2-83.2c0-11.7-2.3-17-2.3-17 6-2 11.8-2.9 20.3-2.9 13.3 0 17.6 5.5 18.1 22v81.1zm21.8 61.3c-1.3 1.1-4.1 1.7-6.7 1.7-4.1 0-7.4-1.8-7.4-7.1v-6.3c0-5.8 3.2-7.4 7.8-7.4 2 0 4.8.3 6.3.7v18.4zm7.8 7.4v-29.7c0-.5-.2-.9-.7-1.1-3.6-1.5-8.5-2.6-13.5-2.6-8.6 0-15.6 3.8-15.6 14.4v6.3c0 9.5 6.6 13.9 14.5 13.9 2.4 0 5.3-.5 7.5-1.5.2 6.8-2.2 9-7.3 9-3.5 0-6.6-1.2-9.1-3-.5-.4-1-.3-1.3.3l-2.8 4.2c-.3.6-.3 1 .2 1.3 3.6 2.8 7.6 4.2 13.1 4.2 10.7 0 15-5.8 15-15.7"/></svg>
